<svg width="36" height="36" viewBox="0 0 36 36" fill="none" xmlns="http://www.w3.org/2000/svg">
<g clip-path="url(#clip0_1_1631)">
<path d="M24.9091 9.65211L26.35 6.75647L29.2132 5.73647C29.825 5.51848 30.3153 5.07538 30.5938 4.4887C30.8723 3.90201 30.9056 3.24199 30.6877 2.6302C30.4697 2.01841 30.0266 1.52813 29.4399 1.24962C29.0594 1.06903 28.6486 0.991509 28.2391 1.01881C27.6239 0.157866 26.4889 -0.231006 25.4441 0.141255C24.1811 0.591184 23.5197 1.98466 23.9697 3.24752L24.9843 6.09576L23.5878 8.9022C21.9 8.07349 20.0034 7.60718 17.9996 7.60718C15.9958 7.60718 14.099 8.07349 12.4112 8.90236L11.015 6.09538L12.0295 3.24752C12.4794 1.98458 11.818 0.591108 10.5551 0.141179C9.50968 -0.231233 8.37522 0.157714 7.7601 1.01874C7.35105 0.991433 6.93973 1.06903 6.55928 1.24954C5.97267 1.52806 5.52949 2.01834 5.31158 2.63012C4.86165 3.89306 5.52305 5.28654 6.78599 5.73647L9.64969 6.75662L11.09 9.65219C7.59452 11.9221 5.2776 15.8599 5.2776 20.3293C5.2776 25.2793 8.11954 29.5776 12.2573 31.6795L10.6534 34.9036C10.4668 35.2786 10.6196 35.734 10.9946 35.9205C11.1032 35.9745 11.2184 36 11.3318 36C11.6107 36 11.8789 35.8458 12.0115 35.5792L13.6502 32.2852C15.0079 32.7807 16.4727 33.0513 17.9996 33.0513C19.5267 33.0513 20.9918 32.7806 22.3496 32.2851L23.988 35.5792C24.1207 35.8458 24.389 36.0001 24.6678 36.0001C24.7812 36.0001 24.8965 35.9745 25.0049 35.9205C25.38 35.734 25.5328 35.2787 25.3463 34.9037L23.7425 31.6792C27.8799 29.5772 30.7216 25.279 30.7216 20.3293C30.7216 15.8599 28.4046 11.9219 24.9091 9.65211ZM25.9532 1.57023C26.0543 1.5342 26.1575 1.51713 26.2591 1.51713C26.6351 1.51713 26.9883 1.7509 27.1215 2.12475C27.189 2.31422 27.329 2.46918 27.5107 2.55541C27.6924 2.64165 27.901 2.6522 28.0906 2.58469C28.3204 2.5027 28.5688 2.51521 28.7895 2.61996C29.0101 2.72471 29.1768 2.90909 29.2588 3.13921C29.3408 3.36926 29.3282 3.61751 29.2235 3.83815C29.1188 4.05879 28.9343 4.22543 28.7042 4.30742L26.267 5.17565L25.3987 2.73836C25.2295 2.26348 25.4782 1.73944 25.9532 1.57023ZM6.74055 3.13921C6.82255 2.90909 6.98918 2.72471 7.2099 2.61996C7.33437 2.56087 7.46748 2.53114 7.60127 2.53114C7.70465 2.53114 7.80841 2.54889 7.90884 2.58469C8.09823 2.6522 8.30689 2.64165 8.48862 2.55541C8.67035 2.46918 8.81036 2.31422 8.87787 2.12475C9.04716 1.64972 9.57112 1.40101 10.0462 1.57023C10.5211 1.73944 10.7698 2.26348 10.6007 2.73851L9.73244 5.1758L7.29508 4.3075C6.82012 4.13828 6.57134 3.61417 6.74055 3.13921ZM28.9021 17.7398L23.3128 17.7572L22.8768 16.2692L28.4366 16.2519C28.6251 16.7327 28.7809 17.2296 28.9021 17.7398ZM29.2047 20.3293C29.2047 20.4685 29.2013 20.607 29.1962 20.745L24.1927 20.7601L23.7569 19.2728L29.153 19.256C29.1868 19.6094 29.2047 19.9673 29.2047 20.3293ZM28.6691 23.7527L25.0727 23.7637L24.6368 22.2758L29.0372 22.2625C28.9483 22.7718 28.8246 23.2692 28.6691 23.7527ZM22.4327 14.7537L21.9966 13.2657L26.6791 13.2511C27.0598 13.717 27.4039 14.2137 27.7068 14.7374L22.4327 14.7537ZM21.5526 11.7501L20.8944 9.50406C22.4929 9.93191 23.9515 10.7051 25.1852 11.7387L21.5526 11.7501ZM19.222 9.19111L25.0384 29.0406C24.6316 29.37 24.2015 29.6715 23.7509 29.9421L17.6524 9.13005C17.7678 9.12648 17.8834 9.12413 17.9997 9.12413C18.4127 9.12421 18.8204 9.14734 19.222 9.19111ZM20.9679 31.1345L14.6662 9.63042C15.1371 9.48343 15.6214 9.36738 16.1165 9.28326L22.3757 30.6442C21.921 30.8378 21.4508 31.0017 20.9679 31.1345ZM17.9522 31.5337L11.9132 10.9257C12.339 10.6493 12.7846 10.4011 13.2474 10.1834L19.4757 31.437C18.9925 31.5008 18.4999 31.5343 17.9995 31.5343C17.9838 31.5343 17.9681 31.5338 17.9522 31.5337ZM11.8917 29.7185L12.2992 28.3276L12.8748 30.2918C12.5367 30.1172 12.2088 29.9255 11.8917 29.7185ZM9.42481 13.125C9.79176 12.6889 10.1912 12.2811 10.6196 11.9053L16.3354 31.4106C15.7659 31.3254 15.2102 31.1977 14.6719 31.0299L9.42481 13.125ZM9.94254 20.2856L8.29172 25.9199C7.91073 25.261 7.59543 24.5596 7.35363 23.8252L9.1667 17.6382L9.94254 20.2856ZM8.30863 14.71L8.37636 14.9411L6.79471 20.3384C6.79471 20.3353 6.79463 20.3323 6.79463 20.3293C6.79456 18.2828 7.34643 16.363 8.30863 14.71ZM9.40615 27.5114L10.733 22.9829L11.5088 25.6303L10.5992 28.735C10.1713 28.3579 9.77242 27.9489 9.40615 27.5114ZM26.2771 27.8736L25.5169 25.2793L28.0539 25.2715C27.5846 26.2224 26.9847 27.0979 26.2771 27.8736Z" fill="#E1AD37"/>
</g>
<defs>
<clipPath id="clip0_1_1631">
<rect width="36" height="36" fill="white"/>
</clipPath>
</defs>
</svg>
