<?xml version="1.0" encoding="UTF-8" standalone="no"?><!DOCTYPE svg PUBLIC "-//W3C//DTD SVG 1.1//EN" "http://www.w3.org/Graphics/SVG/1.1/DTD/svg11.dtd"><svg width="24" height="24" viewBox="0 0 24 24" version="1.1" xmlns="http://www.w3.org/2000/svg" xmlns:xlink="http://www.w3.org/1999/xlink" xml:space="preserve" xmlns:serif="http://www.serif.com/" style="fill-rule:evenodd;clip-rule:evenodd;stroke-linecap:round;stroke-linejoin:round;"><path d="M14.25,21l3.6,0c0.988,0 1.8,-0.813 1.8,-1.8l0,-10.8c0.002,-0.576 -0.227,-1.129 -0.635,-1.535l-3.229,-3.229c-0.407,-0.408 -0.959,-0.637 -1.535,-0.635l-7.2,0c-0.988,0 -1.8,0.813 -1.8,1.8l0,5.4" style="fill:none;fill-rule:nonzero;stroke:#424b54;stroke-width:2px;"/><path d="M14.25,3l0,4.5c0,0.494 0.406,0.9 0.9,0.9l4.5,0" style="fill:none;fill-rule:nonzero;stroke:#424b54;stroke-width:2px;"/><path d="M6.15,13.8c-0.494,0 -0.9,0.406 -0.9,0.9l0,1.8c0,0.494 -0.406,0.9 -0.9,0.9c0.494,0 0.9,0.406 0.9,0.9l0,1.8c0,0.494 0.406,0.9 0.9,0.9" style="fill:none;fill-rule:nonzero;stroke:#424b54;stroke-width:2px;"/><path d="M9.75,21c0.494,0 0.9,-0.406 0.9,-0.9l0,-1.8c0,-0.494 0.406,-0.9 0.9,-0.9c-0.494,0 -0.9,-0.406 -0.9,-0.9l0,-1.8c0,-0.494 -0.406,-0.9 -0.9,-0.9" style="fill:none;fill-rule:nonzero;stroke:#424b54;stroke-width:2px;"/></svg>
