<svg width="174" height="41" viewBox="0 0 174 41" fill="none" xmlns="http://www.w3.org/2000/svg">
<path d="M14.6406 1.48646C4.75246 4.09265 0 7.92528 0 13.291C0 17.5068 2.60619 18.9632 19.5464 24.1756C29.5879 27.2417 32.5007 28.4682 35.1069 30.8444C41.469 36.67 28.5147 39.5828 15.7138 35.2136C6.1322 31.9175 2.98945 28.0849 7.66525 25.4021C10.5014 23.7923 10.578 22.9492 8.04852 22.9492C5.9789 22.9492 2.29958 26.0153 2.29958 27.7016C2.29958 30.3078 6.1322 34.2171 10.6547 36.2867C20.4662 40.6559 31.6575 41.5757 37.0232 38.5096C39.0161 37.2832 39.5527 36.5167 39.706 33.9871C39.8593 31.4576 39.5527 30.5378 37.7897 28.7748C34.6469 25.632 28.1315 22.5659 19.4697 20.2663C10.7314 17.8135 3.83263 14.9773 3.83263 13.7509C3.83263 8.6918 15.3305 4.47591 28.9747 4.62922C38.9395 4.62922 44.6884 7.31206 39.1694 9.22837C36.4866 10.1482 36.1033 11.1447 38.2496 11.8346C40.3959 12.5244 43.6153 10.9914 44.6118 8.76845C45.8382 6.00896 43.5386 3.01951 38.6329 1.33316C33.3439 -0.506502 21.9993 -0.42985 14.6406 1.48646Z" fill="#FE64A3"/>
<path d="M108.847 1.1032C104.401 1.71642 97.8853 2.40629 94.2826 2.7129C86.6174 3.32612 84.5478 4.09264 85.9275 5.779C86.694 6.77548 88.457 6.85214 96.7355 6.39222L106.624 5.85565L106.24 9.61163C106.01 11.6812 105.627 18.1201 105.397 23.9457C105.014 32.914 105.091 34.907 106.164 36.44C108.08 39.3528 109.46 38.7396 110.073 34.677C110.38 32.684 110.38 25.3254 110.226 18.1967L109.766 5.31909H120.421C129.466 5.31909 131.229 5.16578 131.612 4.09264C132.992 0.33667 123.641 -0.88977 108.847 1.1032Z" fill="#FE64A3"/>
<path d="M71.6701 10.0715C71.5168 10.6081 71.2102 14.6707 70.9036 19.0399C70.6736 23.4091 69.9838 27.9316 69.3705 29.0047C67.9142 31.8409 65.4613 33.8338 63.8516 33.5272C62.7018 33.2973 62.4718 32.5307 62.5485 28.7748C62.6251 25.7087 63.085 23.9456 64.0049 23.1025C65.2313 21.876 65.308 22.0293 64.7714 25.7853C64.2348 29.9245 64.848 30.921 66.6877 28.6981C69.2172 25.632 66.3811 19.1165 62.9317 20.2663C61.0154 20.8795 59.9423 22.6426 57.8727 28.6215C57.0295 31.0743 56.033 33.0673 55.5731 32.9906C55.1132 32.914 54.8066 30.6144 54.8066 27.7016C54.8066 23.1025 54.6533 22.5659 53.2735 22.5659C52.2004 22.5659 51.6638 23.3324 51.2039 25.4787C50.8973 27.0117 49.8242 29.7712 48.9043 31.6109L47.1413 34.8303L46.9114 27.625C46.8347 23.7157 46.9114 20.2663 47.1413 20.0364C47.2946 19.8064 49.1343 19.6531 51.1272 19.7298C55.7264 19.7298 57.6427 18.8099 57.3361 16.587C57.0295 14.2108 52.8136 13.8275 50.6673 15.9738C48.5977 18.0434 47.6779 17.9667 47.3713 15.8205C47.218 14.7473 46.6047 14.1341 45.6083 14.1341C44.6118 14.1341 43.9986 14.7473 43.8453 15.8205C43.6153 17.1236 43.0787 17.5835 41.6223 17.5835C39.3994 17.5835 39.5527 19.3465 41.8523 19.7298C43.1554 19.8831 43.3087 20.4963 43.0787 26.4752C42.6955 36.8233 45.0717 40.2726 49.2876 35.2136C50.6673 33.6039 51.3572 33.2206 51.5872 34.0638C51.8171 34.6003 52.7369 35.5202 53.6568 35.9801C54.9599 36.67 55.4964 36.5167 56.8762 34.9836L58.4859 33.2206L60.2489 34.9836C62.6251 37.3598 64.5414 37.2065 67.7608 34.3704L70.5203 31.9942L70.2904 34.9836C70.1371 37.3598 70.367 37.8964 71.5935 37.8964C72.7433 37.8964 73.3565 36.8233 74.353 33.0673C75.9627 27.0884 77.7257 24.7888 76.9592 29.5413C76.116 35.2136 79.2587 37.8964 82.5548 34.2171C84.4711 32.1475 86.6174 28.0082 86.6174 26.3985C86.6174 24.0223 84.931 25.402 83.398 29.0814C81.0984 34.677 80.1786 33.9871 80.7918 27.1651C81.2517 22.1826 81.175 21.4161 80.1019 21.4161C78.6455 21.4161 75.1195 25.0188 75.1195 26.4752C75.1195 27.0884 74.8129 27.5483 74.5063 27.5483C74.1997 27.5483 74.353 23.869 74.8129 19.2698C75.6561 10.9914 75.3494 9.15171 73.0499 9.15171C72.5133 9.15171 71.9001 9.61162 71.6701 10.0715Z" fill="#FE64A3"/>
<path d="M158.517 9.99489C157.368 10.6081 157.138 11.9112 157.138 18.4267C157.138 23.9456 156.831 26.7818 155.911 28.5448C154.072 32.2241 152.539 33.6805 150.469 33.6805C148.859 33.6805 148.706 33.3739 148.706 30.0012C148.783 28.0082 149.242 25.3254 149.856 24.099L150.929 21.7994L150.852 25.632C150.776 28.5448 151.005 29.388 151.849 29.2347C155.528 28.3148 154.148 19.8831 150.239 19.8831C148.399 19.8831 145.87 23.1791 144.797 26.9351C142.574 35.2902 140.734 35.8268 141.117 28.0849C141.424 22.7959 141.347 22.5659 139.738 22.5659C138.741 22.5659 137.591 22.106 137.055 21.5694C134.525 19.0399 130.463 21.7227 128.776 27.1651C127.32 31.7642 125.71 34.5237 124.867 33.9871C124.407 33.7572 124.254 32.5307 124.484 31.3043C124.714 30.0778 125.174 28.0082 125.404 26.7818C125.787 24.7122 125.634 24.4822 123.871 24.4822C122.414 24.4822 121.878 24.099 121.878 22.9492C121.878 21.2628 120.038 20.8795 119.041 22.3359C118.122 23.869 118.352 27.5483 119.425 27.5483C119.885 27.5483 120.344 27.1651 120.344 26.7818C120.344 26.3219 120.651 26.0153 121.111 26.0153C121.571 26.0153 121.648 27.395 121.418 29.388C120.421 36.2101 122.951 38.8929 126.937 35.1369L128.623 33.5272L129.696 35.7501C130.539 37.5131 131.229 37.8964 133.299 37.8964C135.675 37.8964 136.058 37.6665 137.745 34.5237C137.821 34.3704 138.434 34.8303 139.124 35.5202C140.811 37.2065 141.424 37.0532 143.187 34.8303C144.95 32.684 145.64 32.3774 145.64 34.0638C145.64 35.3669 147.939 36.7466 150.239 36.7466C151.159 36.7466 152.922 35.6735 154.225 34.447C155.451 33.2206 156.601 32.1475 156.678 32.1475C156.831 32.1475 156.908 33.4506 156.831 34.9836C156.754 37.4365 156.984 37.8964 158.287 37.8964C159.591 37.8964 159.821 37.2832 160.05 33.5272C160.204 30.921 160.74 28.8514 161.354 28.3148C161.967 27.7783 162.503 27.4717 162.58 27.625C162.58 27.7783 162.733 29.388 162.887 31.151C163.04 32.914 163.347 34.7537 163.653 35.1369C164.42 36.3634 167.562 36.1334 169.019 34.7537C170.705 33.0673 174.001 26.3219 173.465 25.7087C172.468 24.7888 171.932 25.3254 170.169 29.0814C167.792 34.1404 165.953 34.2937 166.643 29.388L167.103 25.862L164.803 26.1686C161.814 26.6285 161.967 26.0919 165.799 23.3324C169.325 20.7262 169.632 19.5765 166.796 19.2698C165.263 19.0399 164.65 19.5765 163.653 21.7227C162.963 23.1791 161.814 24.8655 161.2 25.402C160.127 26.3219 160.05 26.0153 160.434 22.9492C161.277 17.2002 161.277 9.61162 160.51 9.38167C160.127 9.30501 159.207 9.53497 158.517 9.99489ZM137.055 27.3184C137.515 33.2973 133.529 38.8929 132.302 33.9871C131.766 31.8409 132.379 27.2417 133.529 25.0188C134.832 22.4892 136.825 23.7923 137.055 27.3184Z" fill="#FE64A3"/>
</svg>
