<svg width="167" height="41" viewBox="0 0 167 41" fill="none" xmlns="http://www.w3.org/2000/svg">
<path d="M14.6406 1.48648C4.75246 4.09266 0 7.92529 0 13.291C0 17.5069 2.60619 18.9633 19.5464 24.1756C29.5879 27.2417 32.5007 28.4682 35.1069 30.8444C41.469 36.67 28.5147 39.5828 15.7138 35.2136C6.1322 31.9175 2.98945 28.0849 7.66525 25.4021C10.5014 23.7924 10.578 22.9492 8.04852 22.9492C5.9789 22.9492 2.29958 26.0153 2.29958 27.7016C2.29958 30.3078 6.1322 34.2171 10.6547 36.2867C20.4662 40.6559 31.6575 41.5758 37.0232 38.5096C39.0161 37.2832 39.5527 36.5167 39.706 33.9872C39.8593 31.4576 39.5527 30.5378 37.7897 28.7748C34.6469 25.632 28.1315 22.5659 19.4697 20.2663C10.7314 17.8135 3.83263 14.9773 3.83263 13.7509C3.83263 8.69182 15.3305 4.47593 28.9747 4.62923C38.9395 4.62923 44.6884 7.31207 39.1694 9.22838C36.4866 10.1482 36.1033 11.1447 38.2496 11.8346C40.3959 12.5244 43.6153 10.9914 44.6118 8.76847C45.8382 6.00898 43.5386 3.01953 38.6329 1.33317C33.3439 -0.506487 21.9993 -0.429834 14.6406 1.48648Z" fill="#FE64A3"/>
<path d="M106.588 1.10317C102.142 1.71639 95.6265 2.40626 92.0238 2.71287C84.3586 3.32609 82.289 4.09261 83.6687 5.77897C84.4352 6.77545 86.1982 6.85211 94.4767 6.39219L104.365 5.85562L103.982 9.6116C103.752 11.6812 103.368 18.12 103.138 23.9456C102.755 32.914 102.832 34.9069 103.905 36.44C105.821 39.3528 107.201 38.7396 107.814 34.677C108.121 32.684 108.121 25.3254 107.968 18.1967L107.508 5.31906H118.162C127.207 5.31906 128.97 5.16575 129.354 4.09261C130.733 0.33664 121.382 -0.889801 106.588 1.10317Z" fill="#FE64A3"/>
<path d="M56.8762 34.9836C55.4964 36.5167 54.9599 36.67 53.6568 35.9801C52.7369 35.5202 51.8171 34.6003 51.5872 34.0638C51.3572 33.2206 50.6673 33.6039 49.2876 35.2136C45.0717 40.2726 42.6955 36.8233 43.0787 26.4752C43.3087 20.4963 43.1554 19.8831 41.8523 19.7298C39.5527 19.3465 39.3994 17.5835 41.6223 17.5835C43.0787 17.5835 43.6153 17.1236 43.8453 15.8205C43.9986 14.7473 44.6118 14.1341 45.6083 14.1341C46.6047 14.1341 47.218 14.7473 47.3713 15.8205C47.6779 17.9667 48.5977 18.0434 50.6673 15.9738C52.8136 13.8275 57.0295 14.2108 57.3361 16.587C57.6427 18.8099 55.7264 19.7298 51.1272 19.7298C49.1343 19.6531 47.2946 19.8064 47.1413 20.0364C46.9114 20.2663 46.8347 23.7157 46.9114 27.625L47.1413 34.8303L48.9043 31.6109C49.8242 29.7712 50.8973 27.0117 51.2039 25.4787C51.6638 23.3324 52.2004 22.5659 53.2735 22.5659C54.6533 22.5659 54.8066 23.1025 54.8066 27.7016C54.8066 30.6144 55.1132 32.914 55.5731 32.9906C57.4609 33.5709 59.6063 30.3977 60.4431 28.7386C61.0602 32.0155 61.8978 38.155 60.3108 36.4974C58.7238 34.8399 57.3598 34.7976 56.8762 34.9836Z" fill="#FE64A3"/>
<path d="M64.5283 28.6214C66.598 22.6425 67.6711 20.8795 69.5874 20.2663C73.0368 19.1165 75.8729 25.632 73.3434 28.6981C71.5037 30.921 70.8905 29.9245 71.4271 25.7853C71.9636 22.0293 71.887 21.876 70.6605 23.1025C69.7407 23.9456 69.2808 25.7086 69.2041 28.7747C69.1275 32.5307 69.3575 33.2972 70.5072 33.5272C72.1169 33.8338 74.5698 31.8408 76.0262 29.0047C76.6394 27.9316 77.3293 23.4091 77.5593 19.0399C77.8659 14.6707 78.1725 10.6081 78.3258 10.0715C78.5558 9.61161 79.169 9.15169 79.7055 9.15169C82.0051 9.15169 82.3117 10.9914 81.4686 19.2698C81.0086 23.869 80.8553 27.5483 81.1619 27.5483C81.4686 27.5483 81.7752 27.0884 81.7752 26.4752C81.7752 25.0188 85.3012 21.4161 86.7576 21.4161C87.8307 21.4161 87.9074 22.1826 87.4475 27.165C86.8342 33.9871 87.7541 34.677 90.0536 29.0814C91.5867 25.402 93.273 24.0223 93.273 26.3985C93.273 28.0082 91.1268 32.1475 89.2105 34.2171C85.9144 37.8964 82.7716 35.2136 83.6148 29.5413C84.3813 24.7888 82.6183 27.0884 81.0086 33.0673C80.0122 36.8233 79.3989 37.8964 78.2492 37.8964C77.0227 37.8964 76.7928 37.3598 76.9461 34.9836L77.176 31.9941L74.4165 34.3704C71.1971 37.2065 69.2808 37.3598 66.9046 34.9836L65.1416 33.2206C64.6882 32.3833 63.931 30.2913 64.5283 28.6214Z" fill="#FE64A3"/>
<path d="M62.4425 34.8489L64.2055 31.6294C64.7928 30.7935 66.1174 28.8305 66.7169 27.6667C67.3165 26.5029 67.4957 32.031 67.5104 34.9406C66.8032 34.7442 65.2287 34.5277 64.5888 35.2321C60.3729 40.2912 57.9966 36.8418 58.3799 26.4937C58.6099 20.5148 58.4566 19.9016 57.1535 19.7483C54.8539 19.365 54.7006 17.602 56.9235 17.602C58.3799 17.602 58.9165 17.1421 59.1464 15.839C59.2997 14.7659 59.913 14.1527 60.9094 14.1527C61.9059 14.1527 62.5191 14.7659 62.6724 15.839C62.9791 17.9853 63.8989 18.062 65.9685 15.9923C67.3413 16.3315 69.3551 17.5575 66.4284 19.7483C64.4355 19.6717 62.5958 19.825 62.4425 20.0549C62.2125 20.2849 62.1359 23.7342 62.2125 27.6435L62.4425 34.8489Z" fill="#FE64A3"/>
<path d="M151.259 9.99487C150.109 10.6081 149.879 11.9112 149.879 18.4266C149.879 23.9456 149.572 26.7818 148.652 28.5448C146.813 32.2241 145.28 33.6805 143.21 33.6805C141.6 33.6805 141.447 33.3739 141.447 30.0012C141.524 28.0082 141.984 25.3254 142.597 24.0989L143.67 21.7994L143.593 25.632C143.517 28.5448 143.747 29.388 144.59 29.2347C148.269 28.3148 146.889 19.883 142.98 19.883C141.141 19.883 138.611 23.1791 137.538 26.9351C135.315 35.2902 133.475 35.8268 133.859 28.0849C134.165 22.7958 134.088 22.5659 132.479 22.5659C131.482 22.5659 130.332 22.106 129.796 21.5694C127.266 19.0399 123.204 21.7227 121.517 27.165C120.061 31.7642 118.451 34.5237 117.608 33.9871C117.148 33.7572 116.995 32.5307 117.225 31.3043C117.455 30.0778 117.915 28.0082 118.145 26.7818C118.528 24.7122 118.375 24.4822 116.612 24.4822C115.155 24.4822 114.619 24.0989 114.619 22.9491C114.619 21.2628 112.779 20.8795 111.783 22.3359C110.863 23.869 111.093 27.5483 112.166 27.5483C112.626 27.5483 113.086 27.165 113.086 26.7818C113.086 26.3219 113.392 26.0153 113.852 26.0153C114.312 26.0153 114.389 27.395 114.159 29.388C113.162 36.21 115.692 38.8929 119.678 35.1369L121.364 33.5272L122.437 35.7501C123.28 37.5131 123.97 37.8964 126.04 37.8964C128.416 37.8964 128.799 37.6664 130.486 34.5237C130.562 34.3704 131.176 34.8303 131.866 35.5202C133.552 37.2065 134.165 37.0532 135.928 34.8303C137.691 32.684 138.381 32.3774 138.381 34.0638C138.381 35.3669 140.681 36.7466 142.98 36.7466C143.9 36.7466 145.663 35.6735 146.966 34.447C148.193 33.2206 149.342 32.1475 149.419 32.1475C149.572 32.1475 149.649 33.4505 149.572 34.9836C149.496 37.4365 149.726 37.8964 151.029 37.8964C152.332 37.8964 152.562 37.2832 152.792 33.5272C152.945 30.921 153.482 28.8514 154.095 28.3148C154.708 27.7783 155.245 27.4716 155.321 27.625C155.321 27.7783 155.475 29.388 155.628 31.151C155.781 32.914 156.088 34.7536 156.394 35.1369C157.161 36.3633 160.304 36.1334 161.76 34.7536C163.446 33.0673 166.742 26.3219 166.206 25.7086C165.209 24.7888 164.673 25.3254 162.91 29.0814C160.534 34.1404 158.694 34.2937 159.384 29.388L159.844 25.8619L157.544 26.1686C154.555 26.6285 154.708 26.0919 158.541 23.3324C162.067 20.7262 162.373 19.5764 159.537 19.2698C158.004 19.0399 157.391 19.5764 156.394 21.7227C155.704 23.1791 154.555 24.8655 153.941 25.402C152.868 26.3219 152.792 26.0153 153.175 22.9491C154.018 17.2002 154.018 9.61161 153.252 9.38165C152.868 9.305 151.949 9.53496 151.259 9.99487ZM129.796 27.3183C130.256 33.2972 126.27 38.8929 125.043 33.9871C124.507 31.8408 125.12 27.2417 126.27 25.0188C127.573 22.4892 129.566 23.7923 129.796 27.3183Z" fill="#FE64A3"/>
</svg>
