<?xml version="1.0" encoding="UTF-8" standalone="no"?><!DOCTYPE svg PUBLIC "-//W3C//DTD SVG 1.1//EN" "http://www.w3.org/Graphics/SVG/1.1/DTD/svg11.dtd"><svg width="24" height="24" viewBox="0 0 24 24" version="1.1" xmlns="http://www.w3.org/2000/svg" xmlns:xlink="http://www.w3.org/1999/xlink" xml:space="preserve" xmlns:serif="http://www.serif.com/" style="fill-rule:evenodd;clip-rule:evenodd;stroke-linecap:round;stroke-linejoin:round;"><path d="M13.4,2l-7.4,0c-1.097,0 -2,0.903 -2,2l0,16c0,1.097 0.903,2 2,2l12,0c1.097,0 2,-0.903 2,-2l0,-7.4" style="fill:none;fill-rule:nonzero;stroke:#424b54;stroke-width:2px;"/><path d="M2,6l4,0" style="fill:none;fill-rule:nonzero;stroke:#424b54;stroke-width:2px;"/><path d="M2,10l4,0" style="fill:none;fill-rule:nonzero;stroke:#424b54;stroke-width:2px;"/><path d="M2,14l4,0" style="fill:none;fill-rule:nonzero;stroke:#424b54;stroke-width:2px;"/><path d="M2,18l4,0" style="fill:none;fill-rule:nonzero;stroke:#424b54;stroke-width:2px;"/><path d="M21.378,5.626c0.398,-0.398 0.622,-0.939 0.622,-1.502c0,-1.165 -0.959,-2.124 -2.124,-2.124c-0.563,0 -1.104,0.224 -1.502,0.622l-5.01,5.012c-0.238,0.238 -0.412,0.531 -0.506,0.854l-0.837,2.87c-0.013,0.046 -0.02,0.093 -0.02,0.14c0,0.274 0.226,0.5 0.5,0.5c0.047,0 0.095,-0.007 0.14,-0.02l2.87,-0.837c0.323,-0.094 0.616,-0.268 0.854,-0.506l5.013,-5.009l-0,0Z" style="fill:none;fill-rule:nonzero;stroke:#424b54;stroke-width:2px;"/></svg>
