<svg width="22" height="22" viewBox="0 0 22 22" fill="none" xmlns="http://www.w3.org/2000/svg">
<path d="M7.00012 7.00012H7.01012M1.00012 4.20012V8.67463C1.00012 9.16382 1.00012 9.40842 1.05538 9.63862C1.10437 9.84262 1.18518 10.0377 1.29484 10.2167C1.41852 10.4185 1.59147 10.5915 1.93738 10.9374L9.60602 18.606C10.794 19.794 11.3881 20.3881 12.073 20.6106C12.6756 20.8064 13.3246 20.8064 13.9271 20.6106C14.6121 20.3881 15.2062 19.794 16.3942 18.606L18.606 16.3942C19.794 15.2062 20.3881 14.6121 20.6106 13.9271C20.8064 13.3246 20.8064 12.6756 20.6106 12.073C20.3881 11.3881 19.794 10.794 18.606 9.60602L10.9374 1.93738C10.5915 1.59147 10.4185 1.41852 10.2167 1.29484C10.0377 1.18518 9.84262 1.10437 9.63862 1.05538C9.40842 1.00012 9.16382 1.00012 8.67464 1.00012H4.20012C3.08002 1.00012 2.51996 1.00012 2.09214 1.21811C1.71582 1.40985 1.40985 1.71581 1.21811 2.09214C1.00012 2.51996 1.00012 3.08001 1.00012 4.20012ZM7.50012 7.00012C7.50012 7.27626 7.27626 7.50012 7.00012 7.50012C6.72398 7.50012 6.50012 7.27626 6.50012 7.00012C6.50012 6.72398 6.72398 6.50012 7.00012 6.50012C7.27626 6.50012 7.50012 6.72398 7.50012 7.00012Z" stroke="white" stroke-width="2" stroke-linecap="round" stroke-linejoin="round"/>
</svg>
