<?xml version="1.0" encoding="UTF-8" standalone="no"?><!DOCTYPE svg PUBLIC "-//W3C//DTD SVG 1.1//EN" "http://www.w3.org/Graphics/SVG/1.1/DTD/svg11.dtd"><svg width="24" height="24" viewBox="0 0 24 24" version="1.1" xmlns="http://www.w3.org/2000/svg" xmlns:xlink="http://www.w3.org/1999/xlink" xml:space="preserve" xmlns:serif="http://www.serif.com/" style="fill-rule:evenodd;clip-rule:evenodd;stroke-linecap:round;stroke-linejoin:round;"><path d="M11.501,2.499l0,2" style="fill:none;fill-rule:nonzero;stroke:#fff;stroke-width:2px;"/><path d="M14.338,16.884c-0.639,2.696 -3.067,4.616 -5.838,4.616c-3.292,0 -6,-2.708 -6,-6c-0,-2.771 1.919,-5.199 4.615,-5.838c0.624,-0.147 0.97,0.66 0.715,1.248c-0.217,0.501 -0.329,1.042 -0.329,1.588c0,2.194 1.806,4 4,4c0.546,0 1.087,-0.112 1.589,-0.329c0.589,-0.255 1.396,0.09 1.248,0.715" style="fill:none;fill-rule:nonzero;stroke:#fff;stroke-width:2px;"/><path d="M15.501,12.499c0,-2.194 -1.806,-4 -4,-4" style="fill:none;fill-rule:nonzero;stroke:#fff;stroke-width:2px;"/><path d="M18.501,5.499l-1.256,1.256" style="fill:none;fill-rule:nonzero;stroke:#fff;stroke-width:2px;"/><path d="M19.501,12.499l2,0" style="fill:none;fill-rule:nonzero;stroke:#fff;stroke-width:2px;"/></svg>
